<svg xmlns="http://www.w3.org/2000/svg" width="1920" height="1111" viewBox="0 0 1920 1111">
  <g id="Grupo_59" data-name="Grupo 59" transform="translate(0 -1081)">
    <rect id="Rectángulo_26" data-name="Rectángulo 26" width="1920" height="1111" transform="translate(0 1081)" fill="none"/>
    <g id="Grupo_36" data-name="Grupo 36" transform="matrix(0.875, 0.485, -0.485, 0.875, 477.949, -599.131)">
      <path id="Unión_1" data-name="Unión 1" d="M8.5,18a1,1,0,0,1-1-1V10.5H1a1,1,0,0,1-1-1v-1a1,1,0,0,1,1-1H7.5V1a1,1,0,0,1,1-1h1a1,1,0,0,1,1,1V7.5H17a1,1,0,0,1,1,1v1a1,1,0,0,1-1,1H10.5V17a1,1,0,0,1-1,1Z" transform="translate(945 2327)" fill="rgba(193,209,207,0.5)"/>
      <path id="Unión_1-2" data-name="Unión 1" d="M8.5,18a1,1,0,0,1-1-1V10.5H1a1,1,0,0,1-1-1v-1a1,1,0,0,1,1-1H7.5V1a1,1,0,0,1,1-1h1a1,1,0,0,1,1,1V7.5H17a1,1,0,0,1,1,1v1a1,1,0,0,1-1,1H10.5V17a1,1,0,0,1-1,1Z" transform="translate(977 2327)" fill="rgba(193,209,207,0.5)"/>
      <path id="Unión_1-3" data-name="Unión 1" d="M8.5,18a1,1,0,0,1-1-1V10.5H1a1,1,0,0,1-1-1v-1a1,1,0,0,1,1-1H7.5V1a1,1,0,0,1,1-1h1a1,1,0,0,1,1,1V7.5H17a1,1,0,0,1,1,1v1a1,1,0,0,1-1,1H10.5V17a1,1,0,0,1-1,1Z" transform="translate(1009 2327)" fill="rgba(193,209,207,0.5)"/>
      <path id="Unión_1-4" data-name="Unión 1" d="M8.5,18a1,1,0,0,1-1-1V10.5H1a1,1,0,0,1-1-1v-1a1,1,0,0,1,1-1H7.5V1a1,1,0,0,1,1-1h1a1,1,0,0,1,1,1V7.5H17a1,1,0,0,1,1,1v1a1,1,0,0,1-1,1H10.5V17a1,1,0,0,1-1,1Z" transform="translate(1041 2327)" fill="rgba(193,209,207,0.5)"/>
      <path id="Unión_1-5" data-name="Unión 1" d="M8.5,18a1,1,0,0,1-1-1V10.5H1a1,1,0,0,1-1-1v-1a1,1,0,0,1,1-1H7.5V1a1,1,0,0,1,1-1h1a1,1,0,0,1,1,1V7.5H17a1,1,0,0,1,1,1v1a1,1,0,0,1-1,1H10.5V17a1,1,0,0,1-1,1Z" transform="translate(1073 2327)" fill="rgba(193,209,207,0.5)"/>
      <path id="Unión_1-6" data-name="Unión 1" d="M8.5,18a1,1,0,0,1-1-1V10.5H1a1,1,0,0,1-1-1v-1a1,1,0,0,1,1-1H7.5V1a1,1,0,0,1,1-1h1a1,1,0,0,1,1,1V7.5H17a1,1,0,0,1,1,1v1a1,1,0,0,1-1,1H10.5V17a1,1,0,0,1-1,1Z" transform="translate(1105 2327)" fill="rgba(193,209,207,0.5)"/>
      <path id="Unión_1-7" data-name="Unión 1" d="M8.5,18a1,1,0,0,1-1-1V10.5H1a1,1,0,0,1-1-1v-1a1,1,0,0,1,1-1H7.5V1a1,1,0,0,1,1-1h1a1,1,0,0,1,1,1V7.5H17a1,1,0,0,1,1,1v1a1,1,0,0,1-1,1H10.5V17a1,1,0,0,1-1,1Z" transform="translate(1137 2327)" fill="rgba(193,209,207,0.5)"/>
      <path id="Unión_1-8" data-name="Unión 1" d="M8.5,18a1,1,0,0,1-1-1V10.5H1a1,1,0,0,1-1-1v-1a1,1,0,0,1,1-1H7.5V1a1,1,0,0,1,1-1h1a1,1,0,0,1,1,1V7.5H17a1,1,0,0,1,1,1v1a1,1,0,0,1-1,1H10.5V17a1,1,0,0,1-1,1Z" transform="translate(945 2359)" fill="rgba(193,209,207,0.5)"/>
      <path id="Unión_1-9" data-name="Unión 1" d="M8.5,18a1,1,0,0,1-1-1V10.5H1a1,1,0,0,1-1-1v-1a1,1,0,0,1,1-1H7.5V1a1,1,0,0,1,1-1h1a1,1,0,0,1,1,1V7.5H17a1,1,0,0,1,1,1v1a1,1,0,0,1-1,1H10.5V17a1,1,0,0,1-1,1Z" transform="translate(977 2359)" fill="rgba(193,209,207,0.5)"/>
      <path id="Unión_1-10" data-name="Unión 1" d="M8.5,18a1,1,0,0,1-1-1V10.5H1a1,1,0,0,1-1-1v-1a1,1,0,0,1,1-1H7.5V1a1,1,0,0,1,1-1h1a1,1,0,0,1,1,1V7.5H17a1,1,0,0,1,1,1v1a1,1,0,0,1-1,1H10.5V17a1,1,0,0,1-1,1Z" transform="translate(1009 2359)" fill="rgba(193,209,207,0.5)"/>
      <path id="Unión_1-11" data-name="Unión 1" d="M8.5,18a1,1,0,0,1-1-1V10.5H1a1,1,0,0,1-1-1v-1a1,1,0,0,1,1-1H7.5V1a1,1,0,0,1,1-1h1a1,1,0,0,1,1,1V7.5H17a1,1,0,0,1,1,1v1a1,1,0,0,1-1,1H10.5V17a1,1,0,0,1-1,1Z" transform="translate(1041 2359)" fill="rgba(193,209,207,0.5)"/>
      <path id="Unión_1-12" data-name="Unión 1" d="M8.5,18a1,1,0,0,1-1-1V10.5H1a1,1,0,0,1-1-1v-1a1,1,0,0,1,1-1H7.5V1a1,1,0,0,1,1-1h1a1,1,0,0,1,1,1V7.5H17a1,1,0,0,1,1,1v1a1,1,0,0,1-1,1H10.5V17a1,1,0,0,1-1,1Z" transform="translate(1073 2359)" fill="rgba(193,209,207,0.5)"/>
      <path id="Unión_1-13" data-name="Unión 1" d="M8.5,18a1,1,0,0,1-1-1V10.5H1a1,1,0,0,1-1-1v-1a1,1,0,0,1,1-1H7.5V1a1,1,0,0,1,1-1h1a1,1,0,0,1,1,1V7.5H17a1,1,0,0,1,1,1v1a1,1,0,0,1-1,1H10.5V17a1,1,0,0,1-1,1Z" transform="translate(1105 2359)" fill="rgba(193,209,207,0.5)"/>
      <path id="Unión_1-14" data-name="Unión 1" d="M8.5,18a1,1,0,0,1-1-1V10.5H1a1,1,0,0,1-1-1v-1a1,1,0,0,1,1-1H7.5V1a1,1,0,0,1,1-1h1a1,1,0,0,1,1,1V7.5H17a1,1,0,0,1,1,1v1a1,1,0,0,1-1,1H10.5V17a1,1,0,0,1-1,1Z" transform="translate(1137 2359)" fill="rgba(193,209,207,0.5)"/>
      <path id="Unión_1-15" data-name="Unión 1" d="M8.5,18a1,1,0,0,1-1-1V10.5H1a1,1,0,0,1-1-1v-1a1,1,0,0,1,1-1H7.5V1a1,1,0,0,1,1-1h1a1,1,0,0,1,1,1V7.5H17a1,1,0,0,1,1,1v1a1,1,0,0,1-1,1H10.5V17a1,1,0,0,1-1,1Z" transform="translate(945 2391)" fill="rgba(193,209,207,0.5)"/>
      <path id="Unión_1-16" data-name="Unión 1" d="M8.5,18a1,1,0,0,1-1-1V10.5H1a1,1,0,0,1-1-1v-1a1,1,0,0,1,1-1H7.5V1a1,1,0,0,1,1-1h1a1,1,0,0,1,1,1V7.5H17a1,1,0,0,1,1,1v1a1,1,0,0,1-1,1H10.5V17a1,1,0,0,1-1,1Z" transform="translate(977 2391)" fill="rgba(193,209,207,0.5)"/>
      <path id="Unión_1-17" data-name="Unión 1" d="M8.5,18a1,1,0,0,1-1-1V10.5H1a1,1,0,0,1-1-1v-1a1,1,0,0,1,1-1H7.5V1a1,1,0,0,1,1-1h1a1,1,0,0,1,1,1V7.5H17a1,1,0,0,1,1,1v1a1,1,0,0,1-1,1H10.5V17a1,1,0,0,1-1,1Z" transform="translate(1009 2391)" fill="rgba(193,209,207,0.5)"/>
      <path id="Unión_1-18" data-name="Unión 1" d="M8.5,18a1,1,0,0,1-1-1V10.5H1a1,1,0,0,1-1-1v-1a1,1,0,0,1,1-1H7.5V1a1,1,0,0,1,1-1h1a1,1,0,0,1,1,1V7.5H17a1,1,0,0,1,1,1v1a1,1,0,0,1-1,1H10.5V17a1,1,0,0,1-1,1Z" transform="translate(1041 2391)" fill="rgba(193,209,207,0.5)"/>
      <path id="Unión_1-19" data-name="Unión 1" d="M8.5,18a1,1,0,0,1-1-1V10.5H1a1,1,0,0,1-1-1v-1a1,1,0,0,1,1-1H7.5V1a1,1,0,0,1,1-1h1a1,1,0,0,1,1,1V7.5H17a1,1,0,0,1,1,1v1a1,1,0,0,1-1,1H10.5V17a1,1,0,0,1-1,1Z" transform="translate(1073 2391)" fill="rgba(193,209,207,0.5)"/>
      <path id="Unión_1-20" data-name="Unión 1" d="M8.5,18a1,1,0,0,1-1-1V10.5H1a1,1,0,0,1-1-1v-1a1,1,0,0,1,1-1H7.5V1a1,1,0,0,1,1-1h1a1,1,0,0,1,1,1V7.5H17a1,1,0,0,1,1,1v1a1,1,0,0,1-1,1H10.5V17a1,1,0,0,1-1,1Z" transform="translate(1105 2391)" fill="rgba(193,209,207,0.5)"/>
      <path id="Unión_1-21" data-name="Unión 1" d="M8.5,18a1,1,0,0,1-1-1V10.5H1a1,1,0,0,1-1-1v-1a1,1,0,0,1,1-1H7.5V1a1,1,0,0,1,1-1h1a1,1,0,0,1,1,1V7.5H17a1,1,0,0,1,1,1v1a1,1,0,0,1-1,1H10.5V17a1,1,0,0,1-1,1Z" transform="translate(1137 2391)" fill="rgba(193,209,207,0.5)"/>
      <path id="Unión_1-22" data-name="Unión 1" d="M8.5,18a1,1,0,0,1-1-1V10.5H1a1,1,0,0,1-1-1v-1a1,1,0,0,1,1-1H7.5V1a1,1,0,0,1,1-1h1a1,1,0,0,1,1,1V7.5H17a1,1,0,0,1,1,1v1a1,1,0,0,1-1,1H10.5V17a1,1,0,0,1-1,1Z" transform="translate(945 2423)" fill="rgba(193,209,207,0.5)"/>
      <path id="Unión_1-23" data-name="Unión 1" d="M8.5,18a1,1,0,0,1-1-1V10.5H1a1,1,0,0,1-1-1v-1a1,1,0,0,1,1-1H7.5V1a1,1,0,0,1,1-1h1a1,1,0,0,1,1,1V7.5H17a1,1,0,0,1,1,1v1a1,1,0,0,1-1,1H10.5V17a1,1,0,0,1-1,1Z" transform="translate(977 2423)" fill="rgba(193,209,207,0.5)"/>
      <path id="Unión_1-24" data-name="Unión 1" d="M8.5,18a1,1,0,0,1-1-1V10.5H1a1,1,0,0,1-1-1v-1a1,1,0,0,1,1-1H7.5V1a1,1,0,0,1,1-1h1a1,1,0,0,1,1,1V7.5H17a1,1,0,0,1,1,1v1a1,1,0,0,1-1,1H10.5V17a1,1,0,0,1-1,1Z" transform="translate(1009 2423)" fill="rgba(193,209,207,0.5)"/>
      <path id="Unión_1-25" data-name="Unión 1" d="M8.5,18a1,1,0,0,1-1-1V10.5H1a1,1,0,0,1-1-1v-1a1,1,0,0,1,1-1H7.5V1a1,1,0,0,1,1-1h1a1,1,0,0,1,1,1V7.5H17a1,1,0,0,1,1,1v1a1,1,0,0,1-1,1H10.5V17a1,1,0,0,1-1,1Z" transform="translate(1041 2423)" fill="rgba(193,209,207,0.5)"/>
      <path id="Unión_1-26" data-name="Unión 1" d="M8.5,18a1,1,0,0,1-1-1V10.5H1a1,1,0,0,1-1-1v-1a1,1,0,0,1,1-1H7.5V1a1,1,0,0,1,1-1h1a1,1,0,0,1,1,1V7.5H17a1,1,0,0,1,1,1v1a1,1,0,0,1-1,1H10.5V17a1,1,0,0,1-1,1Z" transform="translate(1073 2423)" fill="rgba(193,209,207,0.5)"/>
      <path id="Unión_1-27" data-name="Unión 1" d="M8.5,18a1,1,0,0,1-1-1V10.5H1a1,1,0,0,1-1-1v-1a1,1,0,0,1,1-1H7.5V1a1,1,0,0,1,1-1h1a1,1,0,0,1,1,1V7.5H17a1,1,0,0,1,1,1v1a1,1,0,0,1-1,1H10.5V17a1,1,0,0,1-1,1Z" transform="translate(1105 2423)" fill="rgba(193,209,207,0.5)"/>
      <path id="Unión_1-28" data-name="Unión 1" d="M8.5,18a1,1,0,0,1-1-1V10.5H1a1,1,0,0,1-1-1v-1a1,1,0,0,1,1-1H7.5V1a1,1,0,0,1,1-1h1a1,1,0,0,1,1,1V7.5H17a1,1,0,0,1,1,1v1a1,1,0,0,1-1,1H10.5V17a1,1,0,0,1-1,1Z" transform="translate(1137 2423)" fill="rgba(193,209,207,0.5)"/>
      <path id="Unión_1-29" data-name="Unión 1" d="M8.5,18a1,1,0,0,1-1-1V10.5H1a1,1,0,0,1-1-1v-1a1,1,0,0,1,1-1H7.5V1a1,1,0,0,1,1-1h1a1,1,0,0,1,1,1V7.5H17a1,1,0,0,1,1,1v1a1,1,0,0,1-1,1H10.5V17a1,1,0,0,1-1,1Z" transform="translate(945 2455)" fill="rgba(193,209,207,0.5)"/>
      <path id="Unión_1-30" data-name="Unión 1" d="M8.5,18a1,1,0,0,1-1-1V10.5H1a1,1,0,0,1-1-1v-1a1,1,0,0,1,1-1H7.5V1a1,1,0,0,1,1-1h1a1,1,0,0,1,1,1V7.5H17a1,1,0,0,1,1,1v1a1,1,0,0,1-1,1H10.5V17a1,1,0,0,1-1,1Z" transform="translate(977 2455)" fill="rgba(193,209,207,0.5)"/>
      <path id="Unión_1-31" data-name="Unión 1" d="M8.5,18a1,1,0,0,1-1-1V10.5H1a1,1,0,0,1-1-1v-1a1,1,0,0,1,1-1H7.5V1a1,1,0,0,1,1-1h1a1,1,0,0,1,1,1V7.5H17a1,1,0,0,1,1,1v1a1,1,0,0,1-1,1H10.5V17a1,1,0,0,1-1,1Z" transform="translate(1009 2455)" fill="rgba(193,209,207,0.5)"/>
      <path id="Unión_1-32" data-name="Unión 1" d="M8.5,18a1,1,0,0,1-1-1V10.5H1a1,1,0,0,1-1-1v-1a1,1,0,0,1,1-1H7.5V1a1,1,0,0,1,1-1h1a1,1,0,0,1,1,1V7.5H17a1,1,0,0,1,1,1v1a1,1,0,0,1-1,1H10.5V17a1,1,0,0,1-1,1Z" transform="translate(1041 2455)" fill="rgba(193,209,207,0.5)"/>
      <path id="Unión_1-33" data-name="Unión 1" d="M8.5,18a1,1,0,0,1-1-1V10.5H1a1,1,0,0,1-1-1v-1a1,1,0,0,1,1-1H7.5V1a1,1,0,0,1,1-1h1a1,1,0,0,1,1,1V7.5H17a1,1,0,0,1,1,1v1a1,1,0,0,1-1,1H10.5V17a1,1,0,0,1-1,1Z" transform="translate(1073 2455)" fill="rgba(193,209,207,0.5)"/>
      <path id="Unión_1-34" data-name="Unión 1" d="M8.5,18a1,1,0,0,1-1-1V10.5H1a1,1,0,0,1-1-1v-1a1,1,0,0,1,1-1H7.5V1a1,1,0,0,1,1-1h1a1,1,0,0,1,1,1V7.5H17a1,1,0,0,1,1,1v1a1,1,0,0,1-1,1H10.5V17a1,1,0,0,1-1,1Z" transform="translate(1105 2455)" fill="rgba(193,209,207,0.5)"/>
      <path id="Unión_1-35" data-name="Unión 1" d="M8.5,18a1,1,0,0,1-1-1V10.5H1a1,1,0,0,1-1-1v-1a1,1,0,0,1,1-1H7.5V1a1,1,0,0,1,1-1h1a1,1,0,0,1,1,1V7.5H17a1,1,0,0,1,1,1v1a1,1,0,0,1-1,1H10.5V17a1,1,0,0,1-1,1Z" transform="translate(1137 2455)" fill="rgba(193,209,207,0.5)"/>
      <path id="Unión_1-36" data-name="Unión 1" d="M8.5,18a1,1,0,0,1-1-1V10.5H1a1,1,0,0,1-1-1v-1a1,1,0,0,1,1-1H7.5V1a1,1,0,0,1,1-1h1a1,1,0,0,1,1,1V7.5H17a1,1,0,0,1,1,1v1a1,1,0,0,1-1,1H10.5V17a1,1,0,0,1-1,1Z" transform="translate(945 2487)" fill="rgba(193,209,207,0.5)"/>
      <path id="Unión_1-37" data-name="Unión 1" d="M8.5,18a1,1,0,0,1-1-1V10.5H1a1,1,0,0,1-1-1v-1a1,1,0,0,1,1-1H7.5V1a1,1,0,0,1,1-1h1a1,1,0,0,1,1,1V7.5H17a1,1,0,0,1,1,1v1a1,1,0,0,1-1,1H10.5V17a1,1,0,0,1-1,1Z" transform="translate(977 2487)" fill="rgba(193,209,207,0.5)"/>
      <path id="Unión_1-38" data-name="Unión 1" d="M8.5,18a1,1,0,0,1-1-1V10.5H1a1,1,0,0,1-1-1v-1a1,1,0,0,1,1-1H7.5V1a1,1,0,0,1,1-1h1a1,1,0,0,1,1,1V7.5H17a1,1,0,0,1,1,1v1a1,1,0,0,1-1,1H10.5V17a1,1,0,0,1-1,1Z" transform="translate(1009 2487)" fill="rgba(193,209,207,0.5)"/>
      <path id="Unión_1-39" data-name="Unión 1" d="M8.5,18a1,1,0,0,1-1-1V10.5H1a1,1,0,0,1-1-1v-1a1,1,0,0,1,1-1H7.5V1a1,1,0,0,1,1-1h1a1,1,0,0,1,1,1V7.5H17a1,1,0,0,1,1,1v1a1,1,0,0,1-1,1H10.5V17a1,1,0,0,1-1,1Z" transform="translate(1041 2487)" fill="rgba(193,209,207,0.5)"/>
      <path id="Unión_1-40" data-name="Unión 1" d="M8.5,18a1,1,0,0,1-1-1V10.5H1a1,1,0,0,1-1-1v-1a1,1,0,0,1,1-1H7.5V1a1,1,0,0,1,1-1h1a1,1,0,0,1,1,1V7.5H17a1,1,0,0,1,1,1v1a1,1,0,0,1-1,1H10.5V17a1,1,0,0,1-1,1Z" transform="translate(1073 2487)" fill="rgba(193,209,207,0.5)"/>
      <path id="Unión_1-41" data-name="Unión 1" d="M8.5,18a1,1,0,0,1-1-1V10.5H1a1,1,0,0,1-1-1v-1a1,1,0,0,1,1-1H7.5V1a1,1,0,0,1,1-1h1a1,1,0,0,1,1,1V7.5H17a1,1,0,0,1,1,1v1a1,1,0,0,1-1,1H10.5V17a1,1,0,0,1-1,1Z" transform="translate(1105 2487)" fill="rgba(193,209,207,0.5)"/>
      <path id="Unión_1-42" data-name="Unión 1" d="M8.5,18a1,1,0,0,1-1-1V10.5H1a1,1,0,0,1-1-1v-1a1,1,0,0,1,1-1H7.5V1a1,1,0,0,1,1-1h1a1,1,0,0,1,1,1V7.5H17a1,1,0,0,1,1,1v1a1,1,0,0,1-1,1H10.5V17a1,1,0,0,1-1,1Z" transform="translate(1137 2487)" fill="rgba(193,209,207,0.5)"/>
    </g>
    <g id="Grupo_37" data-name="Grupo 37" transform="matrix(0.875, 0.485, -0.485, 0.875, 1907.932, -1270.131)">
      <path id="Unión_1-43" data-name="Unión 1" d="M8.5,18a1,1,0,0,1-1-1V10.5H1a1,1,0,0,1-1-1v-1a1,1,0,0,1,1-1H7.5V1a1,1,0,0,1,1-1h1a1,1,0,0,1,1,1V7.5H17a1,1,0,0,1,1,1v1a1,1,0,0,1-1,1H10.5V17a1,1,0,0,1-1,1Z" transform="translate(945 2327)" fill="rgba(193,209,207,0.5)"/>
      <path id="Unión_1-44" data-name="Unión 1" d="M8.5,18a1,1,0,0,1-1-1V10.5H1a1,1,0,0,1-1-1v-1a1,1,0,0,1,1-1H7.5V1a1,1,0,0,1,1-1h1a1,1,0,0,1,1,1V7.5H17a1,1,0,0,1,1,1v1a1,1,0,0,1-1,1H10.5V17a1,1,0,0,1-1,1Z" transform="translate(977 2327)" fill="rgba(193,209,207,0.5)"/>
      <path id="Unión_1-45" data-name="Unión 1" d="M8.5,18a1,1,0,0,1-1-1V10.5H1a1,1,0,0,1-1-1v-1a1,1,0,0,1,1-1H7.5V1a1,1,0,0,1,1-1h1a1,1,0,0,1,1,1V7.5H17a1,1,0,0,1,1,1v1a1,1,0,0,1-1,1H10.5V17a1,1,0,0,1-1,1Z" transform="translate(1009 2327)" fill="rgba(193,209,207,0.5)"/>
      <path id="Unión_1-46" data-name="Unión 1" d="M8.5,18a1,1,0,0,1-1-1V10.5H1a1,1,0,0,1-1-1v-1a1,1,0,0,1,1-1H7.5V1a1,1,0,0,1,1-1h1a1,1,0,0,1,1,1V7.5H17a1,1,0,0,1,1,1v1a1,1,0,0,1-1,1H10.5V17a1,1,0,0,1-1,1Z" transform="translate(1041 2327)" fill="rgba(193,209,207,0.5)"/>
      <path id="Unión_1-47" data-name="Unión 1" d="M8.5,18a1,1,0,0,1-1-1V10.5H1a1,1,0,0,1-1-1v-1a1,1,0,0,1,1-1H7.5V1a1,1,0,0,1,1-1h1a1,1,0,0,1,1,1V7.5H17a1,1,0,0,1,1,1v1a1,1,0,0,1-1,1H10.5V17a1,1,0,0,1-1,1Z" transform="translate(1073 2327)" fill="rgba(193,209,207,0.5)"/>
      <path id="Unión_1-48" data-name="Unión 1" d="M8.5,18a1,1,0,0,1-1-1V10.5H1a1,1,0,0,1-1-1v-1a1,1,0,0,1,1-1H7.5V1a1,1,0,0,1,1-1h1a1,1,0,0,1,1,1V7.5H17a1,1,0,0,1,1,1v1a1,1,0,0,1-1,1H10.5V17a1,1,0,0,1-1,1Z" transform="translate(1105 2327)" fill="rgba(193,209,207,0.5)"/>
      <path id="Unión_1-49" data-name="Unión 1" d="M8.5,18a1,1,0,0,1-1-1V10.5H1a1,1,0,0,1-1-1v-1a1,1,0,0,1,1-1H7.5V1a1,1,0,0,1,1-1h1a1,1,0,0,1,1,1V7.5H17a1,1,0,0,1,1,1v1a1,1,0,0,1-1,1H10.5V17a1,1,0,0,1-1,1Z" transform="translate(1137 2327)" fill="rgba(193,209,207,0.5)"/>
      <path id="Unión_1-50" data-name="Unión 1" d="M8.5,18a1,1,0,0,1-1-1V10.5H1a1,1,0,0,1-1-1v-1a1,1,0,0,1,1-1H7.5V1a1,1,0,0,1,1-1h1a1,1,0,0,1,1,1V7.5H17a1,1,0,0,1,1,1v1a1,1,0,0,1-1,1H10.5V17a1,1,0,0,1-1,1Z" transform="translate(945 2359)" fill="rgba(193,209,207,0.5)"/>
      <path id="Unión_1-51" data-name="Unión 1" d="M8.5,18a1,1,0,0,1-1-1V10.5H1a1,1,0,0,1-1-1v-1a1,1,0,0,1,1-1H7.5V1a1,1,0,0,1,1-1h1a1,1,0,0,1,1,1V7.5H17a1,1,0,0,1,1,1v1a1,1,0,0,1-1,1H10.5V17a1,1,0,0,1-1,1Z" transform="translate(977 2359)" fill="rgba(193,209,207,0.5)"/>
      <path id="Unión_1-52" data-name="Unión 1" d="M8.5,18a1,1,0,0,1-1-1V10.5H1a1,1,0,0,1-1-1v-1a1,1,0,0,1,1-1H7.5V1a1,1,0,0,1,1-1h1a1,1,0,0,1,1,1V7.5H17a1,1,0,0,1,1,1v1a1,1,0,0,1-1,1H10.5V17a1,1,0,0,1-1,1Z" transform="translate(1009 2359)" fill="rgba(193,209,207,0.5)"/>
      <path id="Unión_1-53" data-name="Unión 1" d="M8.5,18a1,1,0,0,1-1-1V10.5H1a1,1,0,0,1-1-1v-1a1,1,0,0,1,1-1H7.5V1a1,1,0,0,1,1-1h1a1,1,0,0,1,1,1V7.5H17a1,1,0,0,1,1,1v1a1,1,0,0,1-1,1H10.5V17a1,1,0,0,1-1,1Z" transform="translate(1041 2359)" fill="rgba(193,209,207,0.5)"/>
      <path id="Unión_1-54" data-name="Unión 1" d="M8.5,18a1,1,0,0,1-1-1V10.5H1a1,1,0,0,1-1-1v-1a1,1,0,0,1,1-1H7.5V1a1,1,0,0,1,1-1h1a1,1,0,0,1,1,1V7.5H17a1,1,0,0,1,1,1v1a1,1,0,0,1-1,1H10.5V17a1,1,0,0,1-1,1Z" transform="translate(1073 2359)" fill="rgba(193,209,207,0.5)"/>
      <path id="Unión_1-55" data-name="Unión 1" d="M8.5,18a1,1,0,0,1-1-1V10.5H1a1,1,0,0,1-1-1v-1a1,1,0,0,1,1-1H7.5V1a1,1,0,0,1,1-1h1a1,1,0,0,1,1,1V7.5H17a1,1,0,0,1,1,1v1a1,1,0,0,1-1,1H10.5V17a1,1,0,0,1-1,1Z" transform="translate(1105 2359)" fill="rgba(193,209,207,0.5)"/>
      <path id="Unión_1-56" data-name="Unión 1" d="M8.5,18a1,1,0,0,1-1-1V10.5H1a1,1,0,0,1-1-1v-1a1,1,0,0,1,1-1H7.5V1a1,1,0,0,1,1-1h1a1,1,0,0,1,1,1V7.5H17a1,1,0,0,1,1,1v1a1,1,0,0,1-1,1H10.5V17a1,1,0,0,1-1,1Z" transform="translate(1137 2359)" fill="rgba(193,209,207,0.5)"/>
      <path id="Unión_1-57" data-name="Unión 1" d="M8.5,18a1,1,0,0,1-1-1V10.5H1a1,1,0,0,1-1-1v-1a1,1,0,0,1,1-1H7.5V1a1,1,0,0,1,1-1h1a1,1,0,0,1,1,1V7.5H17a1,1,0,0,1,1,1v1a1,1,0,0,1-1,1H10.5V17a1,1,0,0,1-1,1Z" transform="translate(945 2391)" fill="rgba(193,209,207,0.5)"/>
      <path id="Unión_1-58" data-name="Unión 1" d="M8.5,18a1,1,0,0,1-1-1V10.5H1a1,1,0,0,1-1-1v-1a1,1,0,0,1,1-1H7.5V1a1,1,0,0,1,1-1h1a1,1,0,0,1,1,1V7.5H17a1,1,0,0,1,1,1v1a1,1,0,0,1-1,1H10.5V17a1,1,0,0,1-1,1Z" transform="translate(977 2391)" fill="rgba(193,209,207,0.5)"/>
      <path id="Unión_1-59" data-name="Unión 1" d="M8.5,18a1,1,0,0,1-1-1V10.5H1a1,1,0,0,1-1-1v-1a1,1,0,0,1,1-1H7.5V1a1,1,0,0,1,1-1h1a1,1,0,0,1,1,1V7.5H17a1,1,0,0,1,1,1v1a1,1,0,0,1-1,1H10.5V17a1,1,0,0,1-1,1Z" transform="translate(1009 2391)" fill="rgba(193,209,207,0.5)"/>
      <path id="Unión_1-60" data-name="Unión 1" d="M8.5,18a1,1,0,0,1-1-1V10.5H1a1,1,0,0,1-1-1v-1a1,1,0,0,1,1-1H7.5V1a1,1,0,0,1,1-1h1a1,1,0,0,1,1,1V7.5H17a1,1,0,0,1,1,1v1a1,1,0,0,1-1,1H10.5V17a1,1,0,0,1-1,1Z" transform="translate(1041 2391)" fill="rgba(193,209,207,0.5)"/>
      <path id="Unión_1-61" data-name="Unión 1" d="M8.5,18a1,1,0,0,1-1-1V10.5H1a1,1,0,0,1-1-1v-1a1,1,0,0,1,1-1H7.5V1a1,1,0,0,1,1-1h1a1,1,0,0,1,1,1V7.5H17a1,1,0,0,1,1,1v1a1,1,0,0,1-1,1H10.5V17a1,1,0,0,1-1,1Z" transform="translate(1073 2391)" fill="rgba(193,209,207,0.5)"/>
      <path id="Unión_1-62" data-name="Unión 1" d="M8.5,18a1,1,0,0,1-1-1V10.5H1a1,1,0,0,1-1-1v-1a1,1,0,0,1,1-1H7.5V1a1,1,0,0,1,1-1h1a1,1,0,0,1,1,1V7.5H17a1,1,0,0,1,1,1v1a1,1,0,0,1-1,1H10.5V17a1,1,0,0,1-1,1Z" transform="translate(1105 2391)" fill="rgba(193,209,207,0.5)"/>
      <path id="Unión_1-63" data-name="Unión 1" d="M8.5,18a1,1,0,0,1-1-1V10.5H1a1,1,0,0,1-1-1v-1a1,1,0,0,1,1-1H7.5V1a1,1,0,0,1,1-1h1a1,1,0,0,1,1,1V7.5H17a1,1,0,0,1,1,1v1a1,1,0,0,1-1,1H10.5V17a1,1,0,0,1-1,1Z" transform="translate(1137 2391)" fill="rgba(193,209,207,0.5)"/>
      <path id="Unión_1-64" data-name="Unión 1" d="M8.5,18a1,1,0,0,1-1-1V10.5H1a1,1,0,0,1-1-1v-1a1,1,0,0,1,1-1H7.5V1a1,1,0,0,1,1-1h1a1,1,0,0,1,1,1V7.5H17a1,1,0,0,1,1,1v1a1,1,0,0,1-1,1H10.5V17a1,1,0,0,1-1,1Z" transform="translate(945 2423)" fill="rgba(193,209,207,0.5)"/>
      <path id="Unión_1-65" data-name="Unión 1" d="M8.5,18a1,1,0,0,1-1-1V10.5H1a1,1,0,0,1-1-1v-1a1,1,0,0,1,1-1H7.5V1a1,1,0,0,1,1-1h1a1,1,0,0,1,1,1V7.5H17a1,1,0,0,1,1,1v1a1,1,0,0,1-1,1H10.5V17a1,1,0,0,1-1,1Z" transform="translate(977 2423)" fill="rgba(193,209,207,0.5)"/>
      <path id="Unión_1-66" data-name="Unión 1" d="M8.5,18a1,1,0,0,1-1-1V10.5H1a1,1,0,0,1-1-1v-1a1,1,0,0,1,1-1H7.5V1a1,1,0,0,1,1-1h1a1,1,0,0,1,1,1V7.5H17a1,1,0,0,1,1,1v1a1,1,0,0,1-1,1H10.5V17a1,1,0,0,1-1,1Z" transform="translate(1009 2423)" fill="rgba(193,209,207,0.5)"/>
      <path id="Unión_1-67" data-name="Unión 1" d="M8.5,18a1,1,0,0,1-1-1V10.5H1a1,1,0,0,1-1-1v-1a1,1,0,0,1,1-1H7.5V1a1,1,0,0,1,1-1h1a1,1,0,0,1,1,1V7.5H17a1,1,0,0,1,1,1v1a1,1,0,0,1-1,1H10.5V17a1,1,0,0,1-1,1Z" transform="translate(1041 2423)" fill="rgba(193,209,207,0.5)"/>
      <path id="Unión_1-68" data-name="Unión 1" d="M8.5,18a1,1,0,0,1-1-1V10.5H1a1,1,0,0,1-1-1v-1a1,1,0,0,1,1-1H7.5V1a1,1,0,0,1,1-1h1a1,1,0,0,1,1,1V7.5H17a1,1,0,0,1,1,1v1a1,1,0,0,1-1,1H10.5V17a1,1,0,0,1-1,1Z" transform="translate(1073 2423)" fill="rgba(193,209,207,0.5)"/>
      <path id="Unión_1-69" data-name="Unión 1" d="M8.5,18a1,1,0,0,1-1-1V10.5H1a1,1,0,0,1-1-1v-1a1,1,0,0,1,1-1H7.5V1a1,1,0,0,1,1-1h1a1,1,0,0,1,1,1V7.5H17a1,1,0,0,1,1,1v1a1,1,0,0,1-1,1H10.5V17a1,1,0,0,1-1,1Z" transform="translate(1105 2423)" fill="rgba(193,209,207,0.5)"/>
      <path id="Unión_1-70" data-name="Unión 1" d="M8.5,18a1,1,0,0,1-1-1V10.5H1a1,1,0,0,1-1-1v-1a1,1,0,0,1,1-1H7.5V1a1,1,0,0,1,1-1h1a1,1,0,0,1,1,1V7.5H17a1,1,0,0,1,1,1v1a1,1,0,0,1-1,1H10.5V17a1,1,0,0,1-1,1Z" transform="translate(1137 2423)" fill="rgba(193,209,207,0.5)"/>
      <path id="Unión_1-71" data-name="Unión 1" d="M8.5,18a1,1,0,0,1-1-1V10.5H1a1,1,0,0,1-1-1v-1a1,1,0,0,1,1-1H7.5V1a1,1,0,0,1,1-1h1a1,1,0,0,1,1,1V7.5H17a1,1,0,0,1,1,1v1a1,1,0,0,1-1,1H10.5V17a1,1,0,0,1-1,1Z" transform="translate(945 2455)" fill="rgba(193,209,207,0.5)"/>
      <path id="Unión_1-72" data-name="Unión 1" d="M8.5,18a1,1,0,0,1-1-1V10.5H1a1,1,0,0,1-1-1v-1a1,1,0,0,1,1-1H7.5V1a1,1,0,0,1,1-1h1a1,1,0,0,1,1,1V7.5H17a1,1,0,0,1,1,1v1a1,1,0,0,1-1,1H10.5V17a1,1,0,0,1-1,1Z" transform="translate(977 2455)" fill="rgba(193,209,207,0.5)"/>
      <path id="Unión_1-73" data-name="Unión 1" d="M8.5,18a1,1,0,0,1-1-1V10.5H1a1,1,0,0,1-1-1v-1a1,1,0,0,1,1-1H7.5V1a1,1,0,0,1,1-1h1a1,1,0,0,1,1,1V7.5H17a1,1,0,0,1,1,1v1a1,1,0,0,1-1,1H10.5V17a1,1,0,0,1-1,1Z" transform="translate(1009 2455)" fill="rgba(193,209,207,0.5)"/>
      <path id="Unión_1-74" data-name="Unión 1" d="M8.5,18a1,1,0,0,1-1-1V10.5H1a1,1,0,0,1-1-1v-1a1,1,0,0,1,1-1H7.5V1a1,1,0,0,1,1-1h1a1,1,0,0,1,1,1V7.5H17a1,1,0,0,1,1,1v1a1,1,0,0,1-1,1H10.5V17a1,1,0,0,1-1,1Z" transform="translate(1041 2455)" fill="rgba(193,209,207,0.5)"/>
      <path id="Unión_1-75" data-name="Unión 1" d="M8.5,18a1,1,0,0,1-1-1V10.5H1a1,1,0,0,1-1-1v-1a1,1,0,0,1,1-1H7.5V1a1,1,0,0,1,1-1h1a1,1,0,0,1,1,1V7.5H17a1,1,0,0,1,1,1v1a1,1,0,0,1-1,1H10.5V17a1,1,0,0,1-1,1Z" transform="translate(1073 2455)" fill="rgba(193,209,207,0.5)"/>
      <path id="Unión_1-76" data-name="Unión 1" d="M8.5,18a1,1,0,0,1-1-1V10.5H1a1,1,0,0,1-1-1v-1a1,1,0,0,1,1-1H7.5V1a1,1,0,0,1,1-1h1a1,1,0,0,1,1,1V7.5H17a1,1,0,0,1,1,1v1a1,1,0,0,1-1,1H10.5V17a1,1,0,0,1-1,1Z" transform="translate(1105 2455)" fill="rgba(193,209,207,0.5)"/>
      <path id="Unión_1-77" data-name="Unión 1" d="M8.5,18a1,1,0,0,1-1-1V10.5H1a1,1,0,0,1-1-1v-1a1,1,0,0,1,1-1H7.5V1a1,1,0,0,1,1-1h1a1,1,0,0,1,1,1V7.5H17a1,1,0,0,1,1,1v1a1,1,0,0,1-1,1H10.5V17a1,1,0,0,1-1,1Z" transform="translate(1137 2455)" fill="rgba(193,209,207,0.5)"/>
      <path id="Unión_1-78" data-name="Unión 1" d="M8.5,18a1,1,0,0,1-1-1V10.5H1a1,1,0,0,1-1-1v-1a1,1,0,0,1,1-1H7.5V1a1,1,0,0,1,1-1h1a1,1,0,0,1,1,1V7.5H17a1,1,0,0,1,1,1v1a1,1,0,0,1-1,1H10.5V17a1,1,0,0,1-1,1Z" transform="translate(945 2487)" fill="rgba(193,209,207,0.5)"/>
      <path id="Unión_1-79" data-name="Unión 1" d="M8.5,18a1,1,0,0,1-1-1V10.5H1a1,1,0,0,1-1-1v-1a1,1,0,0,1,1-1H7.5V1a1,1,0,0,1,1-1h1a1,1,0,0,1,1,1V7.5H17a1,1,0,0,1,1,1v1a1,1,0,0,1-1,1H10.5V17a1,1,0,0,1-1,1Z" transform="translate(977 2487)" fill="rgba(193,209,207,0.5)"/>
      <path id="Unión_1-80" data-name="Unión 1" d="M8.5,18a1,1,0,0,1-1-1V10.5H1a1,1,0,0,1-1-1v-1a1,1,0,0,1,1-1H7.5V1a1,1,0,0,1,1-1h1a1,1,0,0,1,1,1V7.5H17a1,1,0,0,1,1,1v1a1,1,0,0,1-1,1H10.5V17a1,1,0,0,1-1,1Z" transform="translate(1009 2487)" fill="rgba(193,209,207,0.5)"/>
      <path id="Unión_1-81" data-name="Unión 1" d="M8.5,18a1,1,0,0,1-1-1V10.5H1a1,1,0,0,1-1-1v-1a1,1,0,0,1,1-1H7.5V1a1,1,0,0,1,1-1h1a1,1,0,0,1,1,1V7.5H17a1,1,0,0,1,1,1v1a1,1,0,0,1-1,1H10.5V17a1,1,0,0,1-1,1Z" transform="translate(1041 2487)" fill="rgba(193,209,207,0.5)"/>
      <path id="Unión_1-82" data-name="Unión 1" d="M8.5,18a1,1,0,0,1-1-1V10.5H1a1,1,0,0,1-1-1v-1a1,1,0,0,1,1-1H7.5V1a1,1,0,0,1,1-1h1a1,1,0,0,1,1,1V7.5H17a1,1,0,0,1,1,1v1a1,1,0,0,1-1,1H10.5V17a1,1,0,0,1-1,1Z" transform="translate(1073 2487)" fill="rgba(193,209,207,0.5)"/>
      <path id="Unión_1-83" data-name="Unión 1" d="M8.5,18a1,1,0,0,1-1-1V10.5H1a1,1,0,0,1-1-1v-1a1,1,0,0,1,1-1H7.5V1a1,1,0,0,1,1-1h1a1,1,0,0,1,1,1V7.5H17a1,1,0,0,1,1,1v1a1,1,0,0,1-1,1H10.5V17a1,1,0,0,1-1,1Z" transform="translate(1105 2487)" fill="rgba(193,209,207,0.5)"/>
      <path id="Unión_1-84" data-name="Unión 1" d="M8.5,18a1,1,0,0,1-1-1V10.5H1a1,1,0,0,1-1-1v-1a1,1,0,0,1,1-1H7.5V1a1,1,0,0,1,1-1h1a1,1,0,0,1,1,1V7.5H17a1,1,0,0,1,1,1v1a1,1,0,0,1-1,1H10.5V17a1,1,0,0,1-1,1Z" transform="translate(1137 2487)" fill="rgba(193,209,207,0.5)"/>
    </g>
  </g>
</svg>
